<svg xmlns="http://www.w3.org/2000/svg" xmlns:xlink="http://www.w3.org/1999/xlink" contentStyleType="text/css" height="1153px" preserveAspectRatio="none" style="width:491px;height:1153px;background:#FFFFFF;" version="1.1" viewBox="0 0 491 1153" width="491px" zoomAndPan="magnify"><defs/><g><text fill="#000000" font-family="sans-serif" font-size="14" font-weight="bold" lengthAdjust="spacing" textLength="448.041" x="20" y="32.9951">&#1044;&#1080;&#1072;&#1075;&#1088;&#1072;&#1084;&#1084;&#1072; &#1074;&#1079;&#1072;&#1080;&#1084;&#1086;&#1076;&#1077;&#1081;&#1089;&#1090;&#1074;&#1080;&#1103; &#1087;&#1086;&#1083;&#1100;&#1079;&#1086;&#1074;&#1072;&#1090;&#1077;&#1083;&#1103; &#1089;&#1086; &#1089;&#1082;&#1088;&#1080;&#1087;&#1090;&#1086;&#1084;</text><ellipse cx="300.7295" cy="57.2969" fill="#222222" rx="10" ry="10" style="stroke:#222222;stroke-width:1.0;"/><path d="M144.5244,133.0073 L144.5244,203.5386 A0,0 0 0 0 144.5244,203.5386 L212.8682,203.5386 A0,0 0 0 0 212.8682,203.5386 L212.8682,172.2729 L232.8682,168.2729 L212.8682,164.2729 L212.8682,143.0073 L202.8682,133.0073 L144.5244,133.0073 A0,0 0 0 0 144.5244,133.0073 " fill="#FEFFDD" style="stroke:#181818;stroke-width:0.5;"/><path d="M202.8682,133.0073 L202.8682,143.0073 L212.8682,143.0073 L202.8682,133.0073 " fill="#FEFFDD" style="stroke:#181818;stroke-width:0.5;"/><ellipse cx="156.0244" cy="145.6401" fill="#000000" rx="2.5" ry="2.5" style="stroke:#000000;stroke-width:0.0;"/><text fill="#000000" font-family="sans-serif" font-size="13" lengthAdjust="spacing" textLength="34.6646" x="162.5244" y="150.0742">Excel</text><ellipse cx="156.0244" cy="160.7729" fill="#000000" rx="2.5" ry="2.5" style="stroke:#000000;stroke-width:0.0;"/><text fill="#000000" font-family="sans-serif" font-size="13" lengthAdjust="spacing" textLength="26.2222" x="162.5244" y="165.207">CSV</text><ellipse cx="156.0244" cy="175.9058" fill="#000000" rx="2.5" ry="2.5" style="stroke:#000000;stroke-width:0.0;"/><text fill="#000000" font-family="sans-serif" font-size="13" lengthAdjust="spacing" textLength="32.043" x="162.5244" y="180.3398">JSON</text><ellipse cx="156.0244" cy="191.0386" fill="#000000" rx="2.5" ry="2.5" style="stroke:#000000;stroke-width:0.0;"/><text fill="#000000" font-family="sans-serif" font-size="13" lengthAdjust="spacing" textLength="35.3438" x="162.5244" y="195.4727">sqlite</text><rect fill="#F1F1F1" height="33.9688" rx="12.5" ry="12.5" style="stroke:#181818;stroke-width:0.5;" width="135.7227" x="232.8682" y="151.2886"/><text fill="#000000" font-family="sans-serif" font-size="12" lengthAdjust="spacing" textLength="115.7227" x="242.8682" y="172.4272">&#1042;&#1099;&#1073;&#1086;&#1088; &#1093;&#1088;&#1072;&#1085;&#1080;&#1083;&#1080;&#1097;&#1072;</text><rect fill="#F1F1F1" height="33.9688" rx="12.5" ry="12.5" style="stroke:#181818;stroke-width:0.5;" width="101.1699" x="250.1445" y="223.5386"/><text fill="#000000" font-family="sans-serif" font-size="12" lengthAdjust="spacing" textLength="81.1699" x="260.1445" y="244.6772">&#1060;&#1086;&#1088;&#1084;&#1072;&#1090; &#1083;&#1086;&#1075;&#1072;</text><path d="M77.6826,267.5073 L77.6826,338.0386 A0,0 0 0 0 77.6826,338.0386 L194.1006,338.0386 A0,0 0 0 0 194.1006,338.0386 L194.1006,306.7729 L214.1006,302.7729 L194.1006,298.7729 L194.1006,277.5073 L184.1006,267.5073 L77.6826,267.5073 A0,0 0 0 0 77.6826,267.5073 " fill="#FEFFDD" style="stroke:#181818;stroke-width:0.5;"/><path d="M184.1006,267.5073 L184.1006,277.5073 L194.1006,277.5073 L184.1006,267.5073 " fill="#FEFFDD" style="stroke:#181818;stroke-width:0.5;"/><text fill="#000000" font-family="sans-serif" font-size="13" lengthAdjust="spacing" textLength="95.418" x="83.6826" y="284.5742">&#1057;&#1087;&#1080;&#1089;&#1086;&#1082; &#1096;&#1072;&#1075;&#1086;&#1074;</text><text fill="#000000" font-family="sans-serif" font-size="13" lengthAdjust="spacing" textLength="86.7915" x="83.6826" y="299.707">&#1076;&#1083;&#1103; &#1082;&#1086;&#1090;&#1086;&#1088;&#1099;&#1093;</text><text fill="#000000" font-family="sans-serif" font-size="13" lengthAdjust="spacing" textLength="83.313" x="83.6826" y="314.8398">&#1085;&#1077;&#1086;&#1073;&#1093;&#1086;&#1076;&#1080;&#1084;&#1086;</text><text fill="#000000" font-family="sans-serif" font-size="13" lengthAdjust="spacing" textLength="80.4565" x="83.6826" y="329.9727">&#1089;&#1086;&#1093;&#1088;&#1072;&#1085;&#1077;&#1085;&#1080;&#1077;</text><rect fill="#F1F1F1" height="33.9688" rx="12.5" ry="12.5" style="stroke:#181818;stroke-width:0.5;" width="173.2578" x="214.1006" y="285.7886"/><text fill="#000000" font-family="sans-serif" font-size="12" lengthAdjust="spacing" textLength="153.2578" x="224.1006" y="306.9272">&#1042;&#1099;&#1074;&#1086;&#1076;&#1080;&#1090;&#1100; &#1083;&#1086;&#1075; &#1085;&#1072; &#1101;&#1082;&#1088;&#1072;&#1085;?</text><path d="M81.21,365.5386 L81.21,436.0698 A0,0 0 0 0 81.21,436.0698 L197.6279,436.0698 A0,0 0 0 0 197.6279,436.0698 L197.6279,404.8042 L217.6279,400.8042 L197.6279,396.8042 L197.6279,375.5386 L187.6279,365.5386 L81.21,365.5386 A0,0 0 0 0 81.21,365.5386 " fill="#FEFFDD" style="stroke:#181818;stroke-width:0.5;"/><path d="M187.6279,365.5386 L187.6279,375.5386 L197.6279,375.5386 L187.6279,365.5386 " fill="#FEFFDD" style="stroke:#181818;stroke-width:0.5;"/><text fill="#000000" font-family="sans-serif" font-size="13" lengthAdjust="spacing" textLength="95.418" x="87.21" y="382.6055">&#1057;&#1087;&#1080;&#1089;&#1086;&#1082; &#1096;&#1072;&#1075;&#1086;&#1074;</text><text fill="#000000" font-family="sans-serif" font-size="13" lengthAdjust="spacing" textLength="86.7915" x="87.21" y="397.7383">&#1076;&#1083;&#1103; &#1082;&#1086;&#1090;&#1086;&#1088;&#1099;&#1093;</text><text fill="#000000" font-family="sans-serif" font-size="13" lengthAdjust="spacing" textLength="83.313" x="87.21" y="412.8711">&#1085;&#1077;&#1086;&#1073;&#1093;&#1086;&#1076;&#1080;&#1084;&#1086;</text><text fill="#000000" font-family="sans-serif" font-size="13" lengthAdjust="spacing" textLength="80.4565" x="87.21" y="428.0039">&#1089;&#1086;&#1093;&#1088;&#1072;&#1085;&#1077;&#1085;&#1080;&#1077;</text><rect fill="#F1F1F1" height="33.9688" rx="12.5" ry="12.5" style="stroke:#181818;stroke-width:0.5;" width="166.2031" x="217.6279" y="383.8198"/><text fill="#000000" font-family="sans-serif" font-size="12" lengthAdjust="spacing" textLength="146.2031" x="227.6279" y="404.9585">&#1057;&#1086;&#1093;&#1088;&#1072;&#1085;&#1103;&#1090;&#1100; &#1083;&#1086;&#1075; &#1074; &#1092;&#1072;&#1081;&#1083;?</text><path d="M35.457,446.0698 L35.457,516.6011 A0,0 0 0 0 35.457,516.6011 L151.875,516.6011 A0,0 0 0 0 151.875,516.6011 L151.875,485.3354 L171.875,481.3354 L151.875,477.3354 L151.875,456.0698 L141.875,446.0698 L35.457,446.0698 A0,0 0 0 0 35.457,446.0698 " fill="#FEFFDD" style="stroke:#181818;stroke-width:0.5;"/><path d="M141.875,446.0698 L141.875,456.0698 L151.875,456.0698 L141.875,446.0698 " fill="#FEFFDD" style="stroke:#181818;stroke-width:0.5;"/><text fill="#000000" font-family="sans-serif" font-size="13" lengthAdjust="spacing" textLength="95.418" x="41.457" y="463.1367">&#1057;&#1087;&#1080;&#1089;&#1086;&#1082; &#1096;&#1072;&#1075;&#1086;&#1074;</text><text fill="#000000" font-family="sans-serif" font-size="13" lengthAdjust="spacing" textLength="86.7915" x="41.457" y="478.2695">&#1076;&#1083;&#1103; &#1082;&#1086;&#1090;&#1086;&#1088;&#1099;&#1093;</text><text fill="#000000" font-family="sans-serif" font-size="13" lengthAdjust="spacing" textLength="83.313" x="41.457" y="493.4023">&#1085;&#1077;&#1086;&#1073;&#1093;&#1086;&#1076;&#1080;&#1084;&#1086;</text><text fill="#000000" font-family="sans-serif" font-size="13" lengthAdjust="spacing" textLength="80.4565" x="41.457" y="508.5352">&#1089;&#1086;&#1093;&#1088;&#1072;&#1085;&#1077;&#1085;&#1080;&#1077;</text><rect fill="#F1F1F1" height="33.9688" rx="12.5" ry="12.5" style="stroke:#181818;stroke-width:0.5;" width="257.709" x="171.875" y="464.3511"/><text fill="#000000" font-family="sans-serif" font-size="12" lengthAdjust="spacing" textLength="237.709" x="181.875" y="485.4897">&#1057;&#1086;&#1093;&#1088;&#1072;&#1085;&#1103;&#1090;&#1100; &#1088;&#1077;&#1079;&#1091;&#1083;&#1100;&#1090;&#1072;&#1090;&#1099; &#1074; &#1093;&#1088;&#1072;&#1085;&#1080;&#1083;&#1080;&#1097;&#1077;?</text><rect fill="#F1F1F1" height="33.9688" rx="12.5" ry="12.5" style="stroke:#181818;stroke-width:0.5;" width="186.2539" x="207.6025" y="536.6011"/><text fill="#000000" font-family="sans-serif" font-size="12" lengthAdjust="spacing" textLength="166.2539" x="217.6025" y="557.7397">&#1057;&#1086;&#1093;&#1088;&#1072;&#1085;&#1080;&#1090;&#1100; &#1082;&#1086;&#1085;&#1092;&#1080;&#1075;&#1091;&#1088;&#1072;&#1094;&#1080;&#1102;</text><polygon fill="#F1F1F1" points="193.7776,87.2969,407.6814,87.2969,419.6814,99.2969,407.6814,111.2969,193.7776,111.2969,181.7776,99.2969,193.7776,87.2969" style="stroke:#181818;stroke-width:0.5;"/><text fill="#000000" font-family="sans-serif" font-size="11" lengthAdjust="spacing" textLength="15.3345" x="304.7295" y="121.5073">&#1044;&#1072;</text><text fill="#000000" font-family="sans-serif" font-size="11" lengthAdjust="spacing" textLength="213.9038" x="193.7776" y="103.105">&#1060;&#1072;&#1081;&#1083; &#1082;&#1086;&#1085;&#1092;&#1080;&#1075;&#1091;&#1088;&#1072;&#1094;&#1080;&#1080; &#1085;&#1077; &#1089;&#1091;&#1097;&#1077;&#1089;&#1090;&#1074;&#1091;&#1077;&#1090;?</text><polygon fill="#F1F1F1" points="300.7295,590.5698,312.7295,602.5698,300.7295,614.5698,288.7295,602.5698,300.7295,590.5698" style="stroke:#181818;stroke-width:0.5;"/><rect fill="#F1F1F1" height="33.9688" rx="12.5" ry="12.5" style="stroke:#181818;stroke-width:0.5;" width="192.4473" x="204.5059" y="634.5698"/><text fill="#000000" font-family="sans-serif" font-size="12" lengthAdjust="spacing" textLength="172.4473" x="214.5059" y="655.7085">&#1047;&#1072;&#1076;&#1072;&#1085;&#1080;&#1077; &#1082;&#1088;&#1080;&#1090;&#1077;&#1088;&#1080;&#1077;&#1074; &#1087;&#1086;&#1080;&#1089;&#1082;&#1072;</text><rect fill="#F1F1F1" height="33.9688" rx="12.5" ry="12.5" style="stroke:#181818;stroke-width:0.5;" width="160.8477" x="220.3057" y="688.5386"/><text fill="#000000" font-family="sans-serif" font-size="12" lengthAdjust="spacing" textLength="140.8477" x="230.3057" y="709.6772">&#1042;&#1099;&#1073;&#1086;&#1088; &#1080;&#1079; &#1088;&#1077;&#1079;&#1091;&#1083;&#1100;&#1090;&#1072;&#1090;&#1086;&#1074;</text><rect fill="#F1F1F1" height="33.9688" rx="12.5" ry="12.5" style="stroke:#181818;stroke-width:0.5;" width="222.8867" x="189.2861" y="742.5073"/><text fill="#000000" font-family="sans-serif" font-size="12" lengthAdjust="spacing" textLength="202.8867" x="199.2861" y="763.646">&#1057;&#1082;&#1072;&#1095;&#1080;&#1074;&#1072;&#1085;&#1080;&#1077; &#1076;&#1072;&#1085;&#1085;&#1099;&#1093; &#1086; &#1074;&#1099;&#1087;&#1083;&#1072;&#1090;&#1072;&#1093;</text><rect fill="#F1F1F1" height="33.9688" rx="12.5" ry="12.5" style="stroke:#181818;stroke-width:0.5;" width="234.1719" x="183.6436" y="796.4761"/><text fill="#000000" font-family="sans-serif" font-size="12" lengthAdjust="spacing" textLength="214.1719" x="193.6436" y="817.6147">&#1055;&#1086;&#1082;&#1072;&#1079; &#1088;&#1077;&#1079;&#1091;&#1083;&#1100;&#1090;&#1072;&#1090;&#1086;&#1074; &#1087;&#1086;&#1083;&#1100;&#1079;&#1086;&#1074;&#1072;&#1090;&#1077;&#1083;&#1102;</text><rect fill="#F1F1F1" height="33.9688" rx="12.5" ry="12.5" style="stroke:#181818;stroke-width:0.5;" width="120.1953" x="240.6318" y="850.4448"/><text fill="#000000" font-family="sans-serif" font-size="12" lengthAdjust="spacing" textLength="100.1953" x="250.6318" y="871.5835">&#1055;&#1086;&#1080;&#1089;&#1082; &#1085;&#1086;&#1074;&#1086;&#1089;&#1090;&#1077;&#1081;</text><rect fill="#F1F1F1" height="33.9688" rx="12.5" ry="12.5" style="stroke:#181818;stroke-width:0.5;" width="119.5332" x="240.9629" y="904.4136"/><text fill="#000000" font-family="sans-serif" font-size="12" lengthAdjust="spacing" textLength="99.5332" x="250.9629" y="925.5522">&#1055;&#1086;&#1082;&#1072;&#1079; &#1085;&#1086;&#1074;&#1086;&#1089;&#1090;&#1077;&#1081;</text><rect fill="#F1F1F1" height="33.9688" rx="12.5" ry="12.5" style="stroke:#181818;stroke-width:0.5;" width="131.5156" x="234.9717" y="958.3823"/><text fill="#000000" font-family="sans-serif" font-size="12" lengthAdjust="spacing" textLength="111.5156" x="244.9717" y="979.521">&#1042;&#1099;&#1073;&#1086;&#1088; &#1086;&#1073;&#1083;&#1080;&#1075;&#1072;&#1094;&#1080;&#1081;</text><rect fill="#F1F1F1" height="33.9688" rx="12.5" ry="12.5" style="stroke:#181818;stroke-width:0.5;" width="169.2617" x="216.0986" y="1012.3511"/><text fill="#000000" font-family="sans-serif" font-size="12" lengthAdjust="spacing" textLength="149.2617" x="226.0986" y="1033.4897">&#1056;&#1072;&#1089;&#1095;&#1077;&#1090; &#1086;&#1073;&#1098;&#1077;&#1084;&#1072; &#1087;&#1086;&#1082;&#1091;&#1087;&#1086;&#1082;</text><rect fill="#F1F1F1" height="33.9688" rx="12.5" ry="12.5" style="stroke:#181818;stroke-width:0.5;" width="143.2051" x="229.127" y="1066.3198"/><text fill="#000000" font-family="sans-serif" font-size="12" lengthAdjust="spacing" textLength="123.2051" x="239.127" y="1087.4585">&#1042;&#1099;&#1074;&#1086;&#1076; &#1088;&#1077;&#1079;&#1091;&#1083;&#1100;&#1090;&#1072;&#1090;&#1086;&#1074;</text><ellipse cx="300.7295" cy="1131.2886" fill="none" rx="11" ry="11" style="stroke:#222222;stroke-width:1.0;"/><ellipse cx="300.7295" cy="1131.2886" fill="#222222" rx="6" ry="6" style="stroke:#222222;stroke-width:1.0;"/><line style="stroke:#181818;stroke-width:1.0;" x1="300.7295" x2="300.7295" y1="185.2573" y2="223.5386"/><polygon fill="#181818" points="296.7295,213.5386,300.7295,223.5386,304.7295,213.5386,300.7295,217.5386" style="stroke:#181818;stroke-width:1.0;"/><line style="stroke:#181818;stroke-width:1.0;" x1="300.7295" x2="300.7295" y1="257.5073" y2="285.7886"/><polygon fill="#181818" points="296.7295,275.7886,300.7295,285.7886,304.7295,275.7886,300.7295,279.7886" style="stroke:#181818;stroke-width:1.0;"/><line style="stroke:#181818;stroke-width:1.0;" x1="300.7295" x2="300.7295" y1="319.7573" y2="383.8198"/><polygon fill="#181818" points="296.7295,373.8198,300.7295,383.8198,304.7295,373.8198,300.7295,377.8198" style="stroke:#181818;stroke-width:1.0;"/><line style="stroke:#181818;stroke-width:1.0;" x1="300.7295" x2="300.7295" y1="417.7886" y2="464.3511"/><polygon fill="#181818" points="296.7295,454.3511,300.7295,464.3511,304.7295,454.3511,300.7295,458.3511" style="stroke:#181818;stroke-width:1.0;"/><line style="stroke:#181818;stroke-width:1.0;" x1="300.7295" x2="300.7295" y1="498.3198" y2="536.6011"/><polygon fill="#181818" points="296.7295,526.6011,300.7295,536.6011,304.7295,526.6011,300.7295,530.6011" style="stroke:#181818;stroke-width:1.0;"/><line style="stroke:#181818;stroke-width:1.0;" x1="300.7295" x2="300.7295" y1="111.2969" y2="151.2886"/><polygon fill="#181818" points="296.7295,141.2886,300.7295,151.2886,304.7295,141.2886,300.7295,145.2886" style="stroke:#181818;stroke-width:1.0;"/><line style="stroke:#181818;stroke-width:1.0;" x1="419.6814" x2="439.584" y1="99.2969" y2="99.2969"/><polygon fill="#181818" points="435.584,345.5386,439.584,355.5386,443.584,345.5386,439.584,349.5386" style="stroke:#181818;stroke-width:1.0;"/><line style="stroke:#181818;stroke-width:1.0;" x1="439.584" x2="439.584" y1="99.2969" y2="602.5698"/><line style="stroke:#181818;stroke-width:1.0;" x1="439.584" x2="312.7295" y1="602.5698" y2="602.5698"/><polygon fill="#181818" points="322.7295,598.5698,312.7295,602.5698,322.7295,606.5698,318.7295,602.5698" style="stroke:#181818;stroke-width:1.0;"/><line style="stroke:#181818;stroke-width:1.0;" x1="300.7295" x2="300.7295" y1="570.5698" y2="590.5698"/><polygon fill="#181818" points="296.7295,580.5698,300.7295,590.5698,304.7295,580.5698,300.7295,584.5698" style="stroke:#181818;stroke-width:1.0;"/><line style="stroke:#181818;stroke-width:1.0;" x1="300.7295" x2="300.7295" y1="67.2969" y2="87.2969"/><polygon fill="#181818" points="296.7295,77.2969,300.7295,87.2969,304.7295,77.2969,300.7295,81.2969" style="stroke:#181818;stroke-width:1.0;"/><line style="stroke:#181818;stroke-width:1.0;" x1="300.7295" x2="300.7295" y1="614.5698" y2="634.5698"/><polygon fill="#181818" points="296.7295,624.5698,300.7295,634.5698,304.7295,624.5698,300.7295,628.5698" style="stroke:#181818;stroke-width:1.0;"/><line style="stroke:#181818;stroke-width:1.0;" x1="300.7295" x2="300.7295" y1="668.5386" y2="688.5386"/><polygon fill="#181818" points="296.7295,678.5386,300.7295,688.5386,304.7295,678.5386,300.7295,682.5386" style="stroke:#181818;stroke-width:1.0;"/><line style="stroke:#181818;stroke-width:1.0;" x1="300.7295" x2="300.7295" y1="722.5073" y2="742.5073"/><polygon fill="#181818" points="296.7295,732.5073,300.7295,742.5073,304.7295,732.5073,300.7295,736.5073" style="stroke:#181818;stroke-width:1.0;"/><line style="stroke:#181818;stroke-width:1.0;" x1="300.7295" x2="300.7295" y1="776.4761" y2="796.4761"/><polygon fill="#181818" points="296.7295,786.4761,300.7295,796.4761,304.7295,786.4761,300.7295,790.4761" style="stroke:#181818;stroke-width:1.0;"/><line style="stroke:#181818;stroke-width:1.0;" x1="300.7295" x2="300.7295" y1="830.4448" y2="850.4448"/><polygon fill="#181818" points="296.7295,840.4448,300.7295,850.4448,304.7295,840.4448,300.7295,844.4448" style="stroke:#181818;stroke-width:1.0;"/><line style="stroke:#181818;stroke-width:1.0;" x1="300.7295" x2="300.7295" y1="884.4136" y2="904.4136"/><polygon fill="#181818" points="296.7295,894.4136,300.7295,904.4136,304.7295,894.4136,300.7295,898.4136" style="stroke:#181818;stroke-width:1.0;"/><line style="stroke:#181818;stroke-width:1.0;" x1="300.7295" x2="300.7295" y1="938.3823" y2="958.3823"/><polygon fill="#181818" points="296.7295,948.3823,300.7295,958.3823,304.7295,948.3823,300.7295,952.3823" style="stroke:#181818;stroke-width:1.0;"/><line style="stroke:#181818;stroke-width:1.0;" x1="300.7295" x2="300.7295" y1="992.3511" y2="1012.3511"/><polygon fill="#181818" points="296.7295,1002.3511,300.7295,1012.3511,304.7295,1002.3511,300.7295,1006.3511" style="stroke:#181818;stroke-width:1.0;"/><line style="stroke:#181818;stroke-width:1.0;" x1="300.7295" x2="300.7295" y1="1046.3198" y2="1066.3198"/><polygon fill="#181818" points="296.7295,1056.3198,300.7295,1066.3198,304.7295,1056.3198,300.7295,1060.3198" style="stroke:#181818;stroke-width:1.0;"/><line style="stroke:#181818;stroke-width:1.0;" x1="300.7295" x2="300.7295" y1="1100.2886" y2="1120.2886"/><polygon fill="#181818" points="296.7295,1110.2886,300.7295,1120.2886,304.7295,1110.2886,300.7295,1114.2886" style="stroke:#181818;stroke-width:1.0;"/><!--SRC=[rLGxJiD04ErzYX4LS8HGK20Q2YYGw14O4IaAdxYWJ0BX5o0IGgA4I1p095d5SOYvmioDU3DEi45E3xPax-nytvkT3Sf1nQS5VkA8G-vB7TyFl25nZuSG8WW93zZnI1hIn6ua7U9FR8xb3YO9ja8e7EGEIOCJ_SI85F4dzXF-MF1gmUvfu9KFQ97V47J4O-8OgebSmAmlvvfOBh6EY2Vi409xD-pId7AELNDrYO93lueOJnmkUOIdn8_IvdTEf4xIiked2396aJSShfXDzIZmRQ7FCgsVxVcLdBoslPEJDhQtDdDYxQHIddhxrVqiL0ama5E9aYOXNyBzMRwqffwn5abJxgPw1HQIt1itg7Ere3pkWjb8IUIOv5fReWHd-e6nhDmfjLANjhGoBPY3-RkqqkJQkc-b1lsco1bDhWXODpEJpe_oUuHkMVF-JUaG70znV71MaHNDahO1-NrMtD-7D3jCXNCZ3oiUNCi7NecVOJsOedEKZg8Eg8sa0tgRNiKLwvdDpn0CXWMaAMerxAg7NC6gbyLFKqqKEs7uCQrj91YRNoWjzNjH1c4sB_Qy- -HXvcp5AgEgJUnIm8NqCtIHDeSCdT1UwvpQHMFwLmWD078wnTghMtZQxQS5nQZJ_hDGDjHp-Qa5HyTV]--></g></svg>